<svg width="81" height="79" viewBox="0 0 81 79" fill="none" xmlns="http://www.w3.org/2000/svg">
<ellipse cx="40.5" cy="39.5" rx="40.5" ry="39.5" fill="#72AAFE"/>
<path d="M23.0339 26.8182H29.2726V44.9205C29.264 46.6165 28.8592 48.0994 28.0581 49.3693C27.2569 50.6307 26.149 51.6108 24.7342 52.3097C23.3279 53.0085 21.7001 53.358 19.8507 53.358C18.2143 53.358 16.7271 53.0724 15.389 52.5014C14.0595 51.9304 12.9984 51.044 12.2058 49.8423C11.4217 48.6406 11.0339 47.1023 11.0424 45.2273H17.345C17.3706 45.9006 17.4984 46.4759 17.7285 46.9531C17.9672 47.4219 18.2953 47.7756 18.7129 48.0142C19.1305 48.2528 19.6291 48.3722 20.2086 48.3722C20.8137 48.3722 21.3251 48.2443 21.7427 47.9886C22.1603 47.7244 22.4757 47.3366 22.6887 46.8253C22.9103 46.3139 23.0254 45.679 23.0339 44.9205V26.8182ZM39.5222 53L31.9029 26.8182H38.8958L42.8461 43.9744H43.0634L47.5762 26.8182H53.2779L57.7907 44.0128H58.008L61.9711 26.8182H68.9512L61.3446 53H55.2466L50.5293 37.1222H50.3248L45.6074 53H39.5222Z" fill="white"/>
</svg>
